<svg width="104" height="67" viewBox="0 0 104 67" fill="none" xmlns="http://www.w3.org/2000/svg">
<path d="M51.331 0C48.3607 0 33.543 0.430531 33.543 8.90487C33.543 17.3792 48.3607 17.8097 51.331 17.8097C54.3014 17.8097 69.1191 17.3792 69.1191 8.90487C69.1191 0.430531 54.3014 0 51.331 0ZM62.7881 8.90487C60.9297 9.83097 57.0797 10.9956 51.331 10.9956C45.5823 10.9956 41.7323 9.83097 39.8739 8.90487C41.7323 7.97876 45.5823 6.81416 51.331 6.81416C57.0797 6.81416 60.9266 7.97876 62.7881 8.90487Z" fill="#FED650"/>
<path d="M102.518 34.3807C104.364 26.882 104.854 13.263 101.499 5.23779C101.499 5.23779 101.496 5.23779 101.487 5.24088C101.23 5.31832 95.9425 6.89487 88.8991 9.51832C88.8929 9.51832 88.8867 9.52142 88.8836 9.52452C88.6204 9.62363 88.354 9.72274 88.0907 9.82186C87.8058 9.93027 87.5146 10.0387 87.2234 10.1471C86.9292 10.2586 86.635 10.3732 86.3376 10.4878C86.0712 10.59 85.8018 10.6953 85.5323 10.8006C85.5292 10.8006 85.5292 10.8006 85.5292 10.8037C85.5292 10.8006 85.5261 10.8037 85.5261 10.8037C85.1173 10.9648 84.7084 11.1258 84.2934 11.29L84.2872 11.2931C84.2872 11.2931 84.2872 11.2931 84.2841 11.2931C83.7173 11.5161 83.1442 11.7484 82.565 11.9838C82.5589 11.9869 82.5496 11.99 82.5434 11.9931C82.215 12.1294 81.8805 12.2657 81.5429 12.405C74.7814 15.2112 67.4996 18.6834 61.7973 22.5272C59.9761 23.7537 58.3159 25.0205 56.888 26.3152C55.677 27.4086 54.6301 28.5236 53.7876 29.6542C53.3819 30.2024 52.9947 30.7475 52.6323 31.2834C49.5814 35.5701 47.9615 39.8785 47.5681 43.9484C47.1469 47.6931 47.85 50.4404 48.3796 51.9179C48.4261 52.0511 48.4788 52.1657 48.5407 52.2617C50.1173 56.7745 53.385 60.6276 57.9288 63.3192C67.4965 68.9812 79.158 67.3674 88.3261 59.1873C90.2681 57.4559 92.0987 55.4272 93.7712 53.1104C94.0159 52.7727 94.2575 52.4289 94.496 52.0758C92.3496 50.5581 89.404 49.1179 86.096 47.8727L85.8792 47.975C85.8173 48.0679 85.7522 48.1577 85.6872 48.2475C83.4416 51.3542 80.7438 53.6183 77.8509 54.9564C73.3845 57.0223 68.4566 56.8891 64.0181 54.2626C58.3748 50.9205 56.4575 45.3453 58.8982 39.4727C58.9044 39.4542 58.9137 39.4356 58.9199 39.4201C59.7469 37.6608 62.1814 33.4732 67.9301 29.7502C67.9735 29.7223 68.0199 29.6913 68.0633 29.6635C71.1978 27.7741 74.7319 25.8444 78.5973 23.9581C82.9863 21.8179 87.8305 19.721 92.8699 17.8595C93.1765 20.071 93.2013 22.5891 92.9504 25.2342C92.8668 26.1139 92.7522 27.0059 92.6066 27.9042C89.0942 28.9232 84.8106 29.555 82.1841 29.6696C82.1686 29.6696 82.1469 29.6727 82.1314 29.6727C82.1035 29.6727 82.0788 29.6727 82.054 29.6758C81.9332 29.6789 81.8155 29.6851 81.7009 29.6882C81.6947 29.6882 81.6916 29.6882 81.6854 29.6882C81.3509 29.6975 81.0535 29.6913 80.7965 29.6758L80.5332 38.9524V38.9586C80.5735 38.9586 80.6106 38.9586 80.6478 38.9586C81.3323 38.971 82.0199 38.9679 82.7106 38.9586C83.2217 38.9493 83.7389 38.9369 84.25 38.9214C85.9226 38.7944 87.7283 38.5373 89.6022 38.175C90.5407 37.9922 91.4947 37.7847 92.458 37.5493C93.6226 37.2674 94.8027 36.9515 95.9765 36.6015C98.185 35.9325 100.4 35.1891 102.518 34.3807Z" fill="#FED650"/>
<path d="M1.44575 34.3807C-0.400266 26.882 -0.889647 13.263 2.46478 5.23779C2.46478 5.23779 2.46788 5.23779 2.47717 5.24088C2.73425 5.31832 8.02142 6.89487 15.0648 9.51832C15.071 9.51832 15.0772 9.52142 15.0803 9.52452C15.3435 9.62363 15.6099 9.72274 15.8732 9.82186C16.1581 9.93027 16.4493 10.0387 16.7404 10.1471C17.0347 10.2586 17.3289 10.3732 17.6263 10.4878C17.8927 10.59 18.1621 10.6953 18.4316 10.8006C18.4347 10.8006 18.4347 10.8006 18.4347 10.8037C18.4347 10.8006 18.4378 10.8037 18.4378 10.8037C18.8466 10.9648 19.2555 11.1258 19.6705 11.29L19.6767 11.2931C19.6767 11.2931 19.6767 11.2931 19.6798 11.2931C20.2466 11.5161 20.8196 11.7484 21.3988 11.9838C21.405 11.9869 21.4143 11.99 21.4205 11.9931C21.7489 12.1294 22.0834 12.2657 22.421 12.405C29.1825 15.2112 36.4643 18.6834 42.1666 22.5272C43.9878 23.7537 45.648 25.0205 47.0758 26.3152C48.2869 27.4086 49.3338 28.5236 50.1763 29.6542C50.582 30.2024 50.9692 30.7475 51.3316 31.2834C54.3825 35.5701 56.0024 39.8785 56.3958 43.9484C56.817 47.6931 56.1139 50.4404 55.5843 51.9179C55.5378 52.0511 55.4851 52.1657 55.4232 52.2617C53.8466 56.7745 50.5789 60.6276 46.0351 63.3192C36.4674 68.9812 24.8059 67.3674 15.6378 59.1873C13.6958 57.4559 11.8652 55.4272 10.1927 53.1104C9.94796 52.7727 9.70637 52.4289 9.46788 52.0758C11.6143 50.5581 14.5599 49.1179 17.8679 47.8727L18.0847 47.975C18.1466 48.0679 18.2117 48.1577 18.2767 48.2475C20.5223 51.3542 23.2201 53.6183 26.113 54.9564C30.5794 57.0223 35.5073 56.8891 39.9458 54.2626C45.5891 50.9205 47.5064 45.3453 45.0657 39.4727C45.0595 39.4542 45.0502 39.4356 45.044 39.4201C44.217 37.6608 41.7825 33.4732 36.0338 29.7502C35.9904 29.7223 35.944 29.6913 35.9006 29.6635C32.7661 27.7741 29.232 25.8444 25.3665 23.9581C20.9776 21.8179 16.1334 19.721 11.094 17.8595C10.7873 20.071 10.7626 22.5891 11.0135 25.2342C11.0971 26.1139 11.2117 27.0059 11.3573 27.9042C14.8696 28.9232 19.1533 29.555 21.7798 29.6696C21.7953 29.6696 21.817 29.6727 21.8325 29.6727C21.8604 29.6727 21.8851 29.6727 21.9099 29.6758C22.0307 29.6789 22.1484 29.6851 22.263 29.6882C22.2692 29.6882 22.2723 29.6882 22.2785 29.6882C22.613 29.6975 22.9104 29.6913 23.1674 29.6758L23.4307 38.9524V38.9586C23.3904 38.9586 23.3533 38.9586 23.3161 38.9586C22.6316 38.971 21.944 38.9679 21.2533 38.9586C20.7422 38.9493 20.225 38.9369 19.7139 38.9214C18.0413 38.7944 16.2356 38.5373 14.3617 38.175C13.4232 37.9922 12.4692 37.7847 11.5059 37.5493C10.3413 37.2674 9.16124 36.9515 7.98734 36.6015C5.78203 35.9325 3.56434 35.1891 1.44575 34.3807Z" fill="#FED650"/>
</svg>
